# xmcd
#
# Track frame offsets:
#	150
#	15280
#	29807
#	50160
#	66365
#	82372
#	92375
#	111272
#	128852
#	142760
#
# Disc length: 2056 seconds
#
# Revision: 6
# Processed by: cddbd v1.5.1PL2 Copyright (c) Steve Scherf et al.
# Submitted via: audiograbber 1.83.01
#
DISCID=8908060a
DTITLE=Dwight Yoakam - Hill Billy Deluxe
DYEAR=1987
DGENRE=Country
TTITLE0=Little Ways
TTITLE1=Smoke Along The Track
TTITLE2=Johnson's Love
TTITLE3=Please Please Baby
TTITLE4=Readin' Rightin' Rt 23
TTITLE5=Always Late With Your Kisses
TTITLE6=1000 Miles
TTITLE7=Throughout All Time
TTITLE8=Little Sister
TTITLE9=This Drinkin' Will Kill Me
EXTD=This is not blues... it is Country!
EXTT0=
EXTT1=
EXTT2=
EXTT3=
EXTT4=
EXTT5=
EXTT6=
EXTT7=
EXTT8=
EXTT9=
PLAYORDER=
